<svg width="16" height="16" viewBox="0 0 16 16" fill="none" xmlns="http://www.w3.org/2000/svg">
<path d="M11.6508 4.92352L11.6514 4.9231C11.7421 4.86346 11.8505 4.83605 11.9593 4.84655C12.0681 4.85705 12.169 4.90457 12.2467 4.97967C12.3242 5.05461 12.3743 5.1527 12.3911 5.25798C12.4078 5.3627 12.3909 5.47056 12.3423 5.56527C12.3421 5.56573 12.3419 5.56619 12.3416 5.56664L11.1349 7.9629L12.3416 10.3592C12.3419 10.3596 12.3421 10.3601 12.3423 10.3605C12.3909 10.4552 12.4078 10.5631 12.3911 10.6678C12.3743 10.7731 12.3242 10.8712 12.2467 10.9461C12.169 11.0212 12.0681 11.0687 11.9593 11.0792C11.8505 11.0897 11.7421 11.0623 11.6514 11.0027L11.6508 11.0023L10.1164 9.98665L8.39799 13.398C8.39792 13.3982 8.39786 13.3983 8.39779 13.3984C8.35823 13.4775 8.2979 13.545 8.22227 13.5928C8.14642 13.6407 8.0585 13.6665 7.96821 13.6665C7.8779 13.6665 7.78999 13.6407 7.71415 13.5928C7.63855 13.5451 7.57823 13.4775 7.53867 13.3985C7.53859 13.3984 7.53851 13.3982 7.53843 13.398L5.82063 9.98663L4.28561 11.0023L4.28501 11.0027C4.19429 11.0623 4.08592 11.0897 3.97708 11.0792C3.86829 11.0687 3.7674 11.0212 3.68973 10.9461C3.61222 10.8712 3.56211 10.7731 3.54532 10.6678C3.52862 10.5631 3.54548 10.4553 3.59407 10.3606C3.59431 10.3601 3.59455 10.3596 3.59479 10.3592L4.80153 7.9629L3.59479 5.56664C3.59455 5.56617 3.59431 5.56571 3.59407 5.56524C3.54548 5.47053 3.52862 5.36268 3.54532 5.25798C3.56211 5.15271 3.61222 5.05461 3.68973 4.97967C3.7674 4.90457 3.86829 4.85705 3.97708 4.84655C4.08592 4.83605 4.1943 4.86346 4.28501 4.9231L4.28561 4.9235L5.82061 5.93916L7.53843 2.52702C7.53851 2.52686 7.53859 2.52669 7.53867 2.52653C7.57824 2.44752 7.63855 2.38 7.71415 2.33228C7.78999 2.2844 7.8779 2.25859 7.96821 2.25859C8.05851 2.25859 8.14642 2.28439 8.22227 2.33228C8.29788 2.38001 8.35821 2.44756 8.39777 2.52659L8.39761 2.52626L8.17435 2.6387L8.39799 2.52702L11.6508 4.92352ZM11.6508 4.92352L10.1165 5.93913L11.6508 4.92352ZM2.25 10.0444V10.0443V5.86662C2.25 4.74806 2.49123 3.76897 2.96674 2.92214L2.96694 2.92177C3.43802 2.07946 4.13131 1.39683 4.96319 0.953802L4.9638 0.953474C5.83416 0.486848 6.84039 0.25 7.98928 0.25C9.15263 0.25 10.158 0.4871 11.0134 0.952715L11.0133 0.95275L11.0173 0.954811C11.8574 1.3929 12.5582 2.07595 13.0333 2.92213C13.5088 3.77055 13.75 4.74968 13.75 5.86662V10.0443C13.75 11.1955 13.5084 12.1967 13.0329 13.0555C12.5547 13.9056 11.8544 14.5955 11.0147 15.0458L11.0133 15.0466C10.1575 15.5127 9.15209 15.75 7.98928 15.75C6.84081 15.75 5.8349 15.5131 4.96475 15.0463C4.13376 14.591 3.44125 13.9017 2.96721 13.0557C2.49114 12.1948 2.24954 11.1935 2.25 10.0444Z" fill="#F05127" stroke="#132220" stroke-width="0.5"/>
</svg>
