<svg width="16" height="16" viewBox="0 0 16 16" fill="none" xmlns="http://www.w3.org/2000/svg">
<path fill-rule="evenodd" clip-rule="evenodd" d="M7.98928 16C6.80519 16 5.75732 15.7554 4.84568 15.2661C3.97203 14.7877 3.24542 14.0639 2.74875 13.1773C2.24911 12.2739 1.99952 11.2296 2 10.0443V5.86662C2 4.711 2.24958 3.68871 2.74875 2.79974C3.24272 1.9165 3.97055 1.19919 4.84568 0.733142C5.75732 0.244381 6.80519 0 7.98928 0C9.18719 0 10.2351 0.244381 11.1329 0.733142C12.017 1.19417 12.7529 1.91217 13.2513 2.79974C13.7504 3.6902 14 4.71249 14 5.86662V10.0443C14 11.2316 13.7504 12.2759 13.2513 13.1773C12.7503 14.0682 12.0155 14.7927 11.1329 15.2661C10.2346 15.7554 9.18671 16 7.98928 16ZM7.76209 2.63872C7.78167 2.5995 7.81125 2.56662 7.8476 2.54368C7.88395 2.52073 7.92567 2.50859 7.96821 2.50859C8.01074 2.50859 8.05246 2.52073 8.08881 2.54368C8.12516 2.56662 8.15474 2.5995 8.17433 2.63872L10.0198 6.30294L11.7888 5.13199C11.8324 5.10331 11.8839 5.09044 11.9353 5.0954C11.9867 5.10036 12.0351 5.12286 12.0729 5.1594C12.1107 5.19594 12.1358 5.24445 12.1442 5.29735C12.1527 5.35026 12.144 5.40457 12.1196 5.45181L10.855 7.9629L12.1196 10.474C12.144 10.5212 12.1527 10.5755 12.1442 10.6284C12.1358 10.6813 12.1107 10.7299 12.0729 10.7664C12.0351 10.8029 11.9867 10.8254 11.9353 10.8304C11.8839 10.8354 11.8324 10.8225 11.7888 10.7938L10.0198 9.62286L8.17433 13.2863C8.15474 13.3256 8.12516 13.3584 8.08881 13.3814C8.05246 13.4043 8.01074 13.4165 7.96821 13.4165C7.92567 13.4165 7.88395 13.4043 7.8476 13.3814C7.81125 13.3584 7.78167 13.3256 7.76209 13.2863L5.91736 9.62286L4.14766 10.7938C4.10403 10.8225 4.05249 10.8354 4.00108 10.8304C3.94967 10.8254 3.90129 10.8029 3.8635 10.7664C3.82571 10.7299 3.80064 10.6813 3.7922 10.6284C3.78376 10.5755 3.79243 10.5212 3.81686 10.474L5.08145 7.9629L3.81686 5.45181C3.79243 5.40457 3.78376 5.35026 3.7922 5.29735C3.80064 5.24445 3.82571 5.19594 3.8635 5.1594C3.90129 5.12286 3.94967 5.10036 4.00108 5.0954C4.05249 5.09044 4.10403 5.10331 4.14766 5.13199L5.91736 6.30294L7.76209 2.63872Z" fill="#8B6CEF"/>
<path d="M7.76209 2.63872C7.78167 2.5995 7.81125 2.56662 7.8476 2.54368C7.88395 2.52073 7.92567 2.50859 7.96821 2.50859C8.01074 2.50859 8.05246 2.52073 8.08881 2.54368C8.12516 2.56662 8.15474 2.5995 8.17433 2.63872L10.0198 6.30294L11.7888 5.13199C11.8324 5.10331 11.8839 5.09044 11.9353 5.0954C11.9867 5.10036 12.0351 5.12286 12.0729 5.1594C12.1107 5.19594 12.1358 5.24445 12.1442 5.29735C12.1527 5.35026 12.144 5.40457 12.1196 5.45181L10.855 7.9629L12.1196 10.474C12.144 10.5212 12.1527 10.5755 12.1442 10.6284C12.1358 10.6813 12.1107 10.7299 12.0729 10.7664C12.0351 10.8029 11.9867 10.8254 11.9353 10.8304C11.8839 10.8354 11.8324 10.8225 11.7888 10.7938L10.0198 9.62286L8.17433 13.2863C8.15474 13.3256 8.12516 13.3584 8.08881 13.3814C8.05246 13.4043 8.01074 13.4165 7.96821 13.4165C7.92567 13.4165 7.88395 13.4043 7.8476 13.3814C7.81125 13.3584 7.78167 13.3256 7.76209 13.2863L5.91736 9.62286L4.14766 10.7938C4.10403 10.8225 4.05249 10.8354 4.00108 10.8304C3.94967 10.8254 3.90129 10.8029 3.8635 10.7664C3.82571 10.7299 3.80064 10.6813 3.7922 10.6284C3.78376 10.5755 3.79243 10.5212 3.81686 10.474L5.08145 7.9629L3.81686 5.45181C3.79243 5.40457 3.78376 5.35026 3.7922 5.29735C3.80064 5.24445 3.82571 5.19594 3.8635 5.1594C3.90129 5.12286 3.94967 5.10036 4.00108 5.0954C4.05249 5.09044 4.10403 5.10331 4.14766 5.13199L5.91736 6.30294L7.76209 2.63872Z" fill="#1A1B26"/>
<path d="M7.95067 2.75041L7.95068 2.75043L7.95067 2.75041ZM6.14066 6.41536L7.96821 2.78525L9.79649 6.41539L9.92308 6.66675L10.1578 6.51141L11.8802 5.37127L10.6317 7.85045L10.5751 7.9629L10.6317 8.07534L11.8802 10.5545L10.1578 9.41439L9.9231 9.25906L9.7965 9.51038L7.96821 13.1398L6.14065 9.51042L6.01409 9.25908L5.77941 9.41436L4.0562 10.5545L5.30473 8.07534L5.36136 7.9629L5.30473 7.85045L4.0562 5.37125L5.77941 6.51143L6.01411 6.66673L6.14066 6.41536ZM11.8975 5.33699C11.8974 5.33692 11.8974 5.33685 11.8974 5.3368L11.8975 5.33698L11.8975 5.33699ZM11.8974 10.589C11.8974 10.5889 11.8974 10.5889 11.8975 10.5888L11.8975 10.5888L11.8974 10.589ZM4.03895 10.5888C4.03899 10.5889 4.03901 10.5889 4.03904 10.589L4.03894 10.5888L4.03895 10.5888ZM4.03904 5.3368C4.03901 5.33686 4.03898 5.33693 4.03894 5.33701L4.03893 5.33699L4.03904 5.3368ZM11.6514 4.9231L11.6508 4.92352L10.1165 5.93913L8.39799 2.52702C8.39791 2.52686 8.39783 2.52671 8.39775 2.52655C8.35819 2.44754 8.29787 2.38001 8.22227 2.33228C8.14642 2.28439 8.05851 2.25859 7.96821 2.25859C7.8779 2.25859 7.78999 2.2844 7.71415 2.33228C7.6385 2.38003 7.57815 2.44762 7.53859 2.52669C7.53854 2.5268 7.53848 2.52691 7.53843 2.52702L5.82061 5.93916L4.28561 4.9235L4.28501 4.9231C4.1943 4.86346 4.08592 4.83605 3.97708 4.84655C3.86829 4.85705 3.7674 4.90457 3.68973 4.97967C3.61222 5.05461 3.56211 5.15271 3.54532 5.25798C3.52862 5.36268 3.54548 5.47053 3.59407 5.56524C3.59431 5.56571 3.59455 5.56617 3.59479 5.56664L4.80154 7.9629L3.59479 10.3592C3.59456 10.3596 3.59433 10.3601 3.5941 10.3605C3.54549 10.4552 3.52862 10.5631 3.54532 10.6678C3.56211 10.7731 3.61222 10.8712 3.68973 10.9461C3.7674 11.0212 3.86829 11.0687 3.97708 11.0792C4.08592 11.0897 4.19429 11.0623 4.28501 11.0027L4.28561 11.0023L5.82063 9.98663L7.53843 13.398C7.53848 13.3981 7.53853 13.3983 7.53859 13.3984C7.57815 13.4774 7.6385 13.545 7.71415 13.5928C7.78999 13.6407 7.87791 13.6665 7.96821 13.6665C8.0585 13.6665 8.14642 13.6407 8.22227 13.5928C8.2979 13.545 8.35823 13.4775 8.39779 13.3984C8.39786 13.3983 8.39792 13.3982 8.39799 13.398L10.1164 9.98665L11.6508 11.0023L11.6514 11.0027C11.7421 11.0623 11.8505 11.0897 11.9593 11.0792C12.0681 11.0687 12.169 11.0212 12.2467 10.9461C12.3242 10.8712 12.3743 10.7731 12.3911 10.6678C12.4078 10.5631 12.3909 10.4553 12.3424 10.3606L11.1349 7.9629L12.3424 5.56517C12.3909 5.47048 12.4078 5.36266 12.3911 5.25798C12.3743 5.1527 12.3242 5.0546 12.2467 4.97967C12.169 4.90457 12.0681 4.85705 11.9593 4.84655C11.8505 4.83605 11.7421 4.86346 11.6514 4.9231ZM2.25 10.0444V10.0443V5.86662C2.25 4.74806 2.49123 3.76897 2.96674 2.92214L2.96694 2.92177C3.43802 2.07946 4.13131 1.39683 4.96319 0.953802L4.9638 0.953474C5.83416 0.486848 6.84039 0.25 7.98928 0.25C9.15263 0.25 10.158 0.4871 11.0134 0.952715L11.0133 0.95275L11.0173 0.954811C11.8573 1.39287 12.5581 2.07587 13.0332 2.92199C13.5088 3.77044 13.75 4.74962 13.75 5.86662V10.0443C13.75 11.1955 13.5084 12.1967 13.0329 13.0555C12.5547 13.9056 11.8543 14.5955 11.0147 15.0458L11.0133 15.0466C10.1575 15.5127 9.15209 15.75 7.98928 15.75C6.84085 15.75 5.83496 15.5131 4.96484 15.0463C4.13379 14.591 3.44123 13.9017 2.96717 13.0556C2.49113 12.1947 2.24954 11.1934 2.25 10.0444Z" stroke="#1A1B26" stroke-width="0.5"/>
</svg>
