<svg width="16" height="16" viewBox="0 0 16 16" fill="none" xmlns="http://www.w3.org/2000/svg">
<path d="M7.70392 1.16716C7.82944 0.944278 8.17087 0.944281 8.29639 1.16716L10.9447 5.86976L13.4842 4.36668C13.7739 4.19524 14.1193 4.49327 13.9596 4.77686L12.1444 8L13.9596 11.2231C14.1193 11.5067 13.7739 11.8048 13.4842 11.6333L10.9447 10.1302L8.29639 14.8328C8.17087 15.0557 7.82944 15.0557 7.70392 14.8328L5.05545 10.1302L2.51576 11.6333C2.22611 11.8048 1.88074 11.5067 2.04045 11.2232L3.85571 8L2.04045 4.77684C1.88074 4.49326 2.22611 4.19522 2.51576 4.36665L5.05545 5.86976L7.70392 1.16716Z" fill="#F3DCBA" stroke="#132220"/>
</svg>
